<svg xmlns="http://www.w3.org/2000/svg" viewBox="0 0 512 512"><title>Contact</title><g id="Contact"><g id="Contact-2" data-name="Contact"><path d="M248.1246,260.869c23.2478,0,28.8107-18.9666,28.8107-34.866a28.8058,28.8058,0,1,0-57.6116,0C219.3237,241.9024,226.9611,260.869,248.1246,260.869Z"/><path d="M252.1332,264.8767h-8.0244c-15.7851,0-39.4722,14.4666-39.4722,32.3172s-5.3433,32.3172,10.4418,32.3172H281.19c15.7851,0,10.4328-14.4666,10.4328-32.3172S267.9263,264.8767,252.1332,264.8767Z"/><path d="M256,73.82C155.3913,73.82,73.8207,155.3917,73.8207,256A182.1793,182.1793,0,1,0,256,73.82Zm74.03,105.17V361.3343a1.3994,1.3994,0,0,1-1.3994,1.3994H169.028a2.8,2.8,0,0,1-2.8-2.8V156.5913a2.8,2.8,0,0,1,2.8-2.8H328.63a1.4,1.4,0,0,1,1.4,1.4Zm25.1982,0V350.1391a12.5892,12.5892,0,0,1-12.6035,12.5946h-3.41a24.8932,24.8932,0,0,0,3.41-12.5946V166.3861a24.92,24.92,0,0,0-3.41-12.5946h3.41a12.59,12.59,0,0,1,12.6035,12.5946Z"/></g></g></svg>